<svg data-noselect="" viewBox="0 0 800 600" width="1600" height="1200" preserveAspectRatio="none" version="1.1" xmlns="http://www.w3.org/2000/svg" style="background: rgb(4, 35, 67);"><defs></defs> <g id="shape_tyzrqadZSD" transform="translate(310.37157440186,208.95133311301) rotate(0,83.69162935684,43.159551592571) scale(1,1)" filter="" style="cursor: move; opacity: 1;"><g><rect fill="rgba(0,0,0,0)" width="187.38325871368" height="106.319103185142" x="-10" y="-10"></rect><svg version="1.1" id="图层_1" xmlns="http://www.w3.org/2000/svg" xmlns:xlink="http://www.w3.org/1999/xlink" x="0px" y="0px" width="167.38325871368" height="86.319103185142" viewBox="2.9000000953674316 49.90000915527344 194.3000030517578 100.19999694824219" style="enable-background:new 0 0 200 200;" xml:space="preserve" preserveAspectRatio="none" data-parent="shape_tyzrqadZSD">
<style type="text/css">
	.st0{fill:#86C89A;}
</style>
<path class="" d="M197.2,147.1c0,1,0,2,0,3c-1.6-52.3-44.4-94.2-97.1-94.2S4.4,97.8,2.9,150.1c0-1,0-2,0-3
	c0-53.7,43.5-97.2,97.2-97.2S197.2,93.4,197.2,147.1z" fill="#84acc7"></path>
</svg></g></g><g id="shape_xXxWQQivTE" transform="translate(339.063200341795,268.43133926392) rotate(0,267.78716884765,27.392226269531) scale(1,1)" filter="" style="cursor: move; opacity: 1;"><g><svg xmlns="http://www.w3.org/2000/svg" version="1.1" xmlns:xlink="http://www.w3.org/1999/xlink" width="110" height="54.7844525390625" viewBox="0 0 110 54.7844525390625" data-parent="shape_xXxWQQivTE"><rect fill="rgba(0,0,0,0)" width="110" height="54.7844525390625"></rect><g data-width="109.78699497070313" transform="translate(0.10650251464843308, 0)"><path d="M19.37-5.02Q14.16-5.02 10.46-8.71L10.46-8.71Q6.77-12.41 6.77-17.63L6.77-17.63Q6.77-22.85 10.46-26.54L10.46-26.54Q14.16-30.26 19.37-30.26L19.37-30.26Q22.57-30.26 25.36-28.73L25.36-28.73L25.36-34.59Q22.45-35.60 19.37-35.60L19.37-35.60Q11.94-35.60 6.67-30.33L6.67-30.33Q1.40-25.06 1.40-17.63L1.40-17.63Q1.40-10.19 6.67-4.92L6.67-4.92Q11.94 0.34 19.37 0.34L19.37 0.34Q22.45 0.34 25.36-0.69L25.36-0.69L25.36-6.52Q22.57-5.02 19.37-5.02L19.37-5.02Z" transform="translate(0 42) " fill="rgb(255, 255, 255)" stroke="rgb(255, 255, 255)" stroke-linecap="square" stroke-linejoin="square" stroke-width="0.084" data-glyph-w="36.83363916015625" data-glyph-h="52.904119775390626" data-glyph-ascender="42.39222626953125" data-glyph-descender="-10.511893505859376"></path><path d="M13.00 0.34Q12.65 0.34 12.33 0.32L12.33 0.32Q8.84 0.17 5.88-1.55L5.88-1.55Q2.54-3.50 1.33-6.77L1.33-6.77L6.35-8.62Q6.97-6.99 8.89-5.98L8.89-5.98Q10.59-5.12 12.58-5.02L12.58-5.02Q15.66-4.90 17.68-6.52L17.68-6.52Q19.37-7.90 19.47-9.67L19.47-9.67Q19.62-13.05 12.41-15.07L12.41-15.07Q1.11-18.24 1.45-25.82L1.45-25.82Q1.67-31.14 6.01-33.78L6.01-33.78Q9.31-35.79 13.93-35.57L13.93-35.57Q19.55-35.33 22.94-31.66L22.94-31.66L19.03-28.02Q17.11-30.08 13.69-30.23L13.69-30.23Q11.28-30.33 9.58-29.62L9.58-29.62Q6.92-28.48 6.79-25.58L6.79-25.58Q6.65-22.25 13.86-20.24L13.86-20.24Q20.36-18.41 23.07-14.87L23.07-14.87Q24.94-12.41 24.81-9.43L24.81-9.43Q24.62-5.24 21.02-2.34L21.02-2.34Q17.68 0.34 13.00 0.34L13.00 0.34Z" transform="translate(36.83363916015625 42) " fill="rgb(255, 255, 255)" stroke="rgb(255, 255, 255)" stroke-linecap="square" stroke-linejoin="square" stroke-width="0.084" data-glyph-w="36.11971665039063" data-glyph-h="52.904119775390626" data-glyph-ascender="42.39222626953125" data-glyph-descender="-10.511893505859376"></path><path d="M19.37-5.02Q14.16-5.02 10.46-8.71L10.46-8.71Q6.77-12.41 6.77-17.63L6.77-17.63Q6.77-22.85 10.46-26.54L10.46-26.54Q14.16-30.26 19.37-30.26L19.37-30.26Q22.57-30.26 25.36-28.73L25.36-28.73L25.36-34.59Q22.45-35.60 19.37-35.60L19.37-35.60Q11.94-35.60 6.67-30.33L6.67-30.33Q1.40-25.06 1.40-17.63L1.40-17.63Q1.40-10.19 6.67-4.92L6.67-4.92Q11.94 0.34 19.37 0.34L19.37 0.34Q22.45 0.34 25.36-0.69L25.36-0.69L25.36-6.52Q22.57-5.02 19.37-5.02L19.37-5.02Z" transform="translate(72.95335581054688 42) " fill="rgb(255, 255, 255)" stroke="rgb(255, 255, 255)" stroke-linecap="square" stroke-linejoin="square" stroke-width="0.084" data-glyph-w="36.83363916015625" data-glyph-h="52.904119775390626" data-glyph-ascender="42.39222626953125" data-glyph-descender="-10.511893505859376"></path></g></svg></g></g><g id="shape_kSlj2g9DL4" transform="translate(340.563197420275,335.33439114209) rotate(0,100.08556680505,10.669364985533) scale(1,1)" filter="" style="cursor: move; opacity: 1;"><g><svg xmlns="http://www.w3.org/2000/svg" version="1.1" xmlns:xlink="http://www.w3.org/1999/xlink" width="107" height="21.338729971066996" viewBox="0 0 107 21.338729971066996" data-parent="shape_kSlj2g9DL4"><rect fill="rgba(0,0,0,0)" width="107" height="21.338729971066996"></rect><g data-width="106.2591870885645" transform="translate(0.3704064557177489, 0)"><path d="M1.98 0L1.57 0L1.57-14.83L11.11-14.83L11.11-14.42L1.98-14.42L1.98-7.81L9.99-7.81L9.99-7.40L1.98-7.40L1.98 0Z" transform="translate(0 15) " fill="rgb(255, 255, 255)" stroke="rgb(255, 255, 255)" stroke-linecap="square" stroke-linejoin="square" stroke-width="0.035" data-glyph-w="11.114802896405097" data-glyph-h="20.892486647378" data-glyph-ascender="15.6693649855335" data-glyph-descender="-5.2231216618445"></path><path d="M2.07 0L1.65 0L1.65-14.83L7.69-14.83Q8.59-14.83 9.36-14.45Q10.13-14.06 10.69-13.42Q11.24-12.79 11.55-11.98Q11.87-11.18 11.87-10.34L11.87-10.34Q11.87-9.49 11.60-8.69Q11.32-7.90 10.82-7.28Q10.32-6.66 9.62-6.28Q8.92-5.89 8.09-5.83L8.09-5.83L11.85 0L11.34 0L7.58-5.83L2.07-5.83L2.07 0ZM2.07-14.42L2.07-6.25L7.83-6.25Q8.67-6.25 9.34-6.60Q10.01-6.96 10.48-7.53Q10.95-8.11 11.20-8.84Q11.45-9.57 11.45-10.34L11.45-10.34Q11.45-11.14 11.16-11.87Q10.86-12.60 10.35-13.16Q9.84-13.73 9.15-14.07Q8.46-14.42 7.69-14.42L7.69-14.42L2.07-14.42Z" transform="translate(11.114802896405097 15) " fill="rgb(255, 255, 255)" stroke="rgb(255, 255, 255)" stroke-linecap="square" stroke-linejoin="square" stroke-width="0.035" data-glyph-w="13.120481614553384" data-glyph-h="20.892486647378" data-glyph-ascender="15.6693649855335" data-glyph-descender="-5.2231216618445"></path><path d="M1.98-0.42L11.30-0.42L11.30 0L1.57 0L1.57-14.83L11.11-14.83L11.11-14.42L1.98-14.42L1.98-7.79L9.99-7.79L9.99-7.38L1.98-7.38L1.98-0.42Z" transform="translate(24.23528451095848 15) " fill="rgb(255, 255, 255)" stroke="rgb(255, 255, 255)" stroke-linecap="square" stroke-linejoin="square" stroke-width="0.035" data-glyph-w="11.302835276231498" data-glyph-h="20.892486647378" data-glyph-ascender="15.6693649855335" data-glyph-descender="-5.2231216618445"></path><path d="M6.33 0L1.57 0L1.57-14.83L6.33-14.83Q8.09-14.83 9.39-14.25Q10.70-13.66 11.56-12.66Q12.43-11.66 12.86-10.31Q13.29-8.96 13.29-7.44L13.29-7.44Q13.29-5.75 12.80-4.38Q12.31-3.01 11.41-2.04Q10.51-1.07 9.21-0.53Q7.92 0 6.33 0L6.33 0ZM12.87-7.44L12.87-7.44Q12.85-9.00 12.41-10.29Q11.97-11.57 11.15-12.49Q10.32-13.41 9.11-13.91Q7.90-14.42 6.33-14.42L6.33-14.42L1.98-14.42L1.98-0.42L6.33-0.42Q7.94-0.42 9.15-0.94Q10.36-1.46 11.18-2.40Q11.99-3.34 12.41-4.63Q12.83-5.91 12.87-7.44Z" transform="translate(35.53811978718998 15) " fill="rgb(255, 255, 255)" stroke="rgb(255, 255, 255)" stroke-linecap="square" stroke-linejoin="square" stroke-width="0.035" data-glyph-w="14.353138326748686" data-glyph-h="20.892486647378" data-glyph-ascender="15.6693649855335" data-glyph-descender="-5.2231216618445"></path><path d="M1.98-0.42L11.30-0.42L11.30 0L1.57 0L1.57-14.83L11.11-14.83L11.11-14.42L1.98-14.42L1.98-7.79L9.99-7.79L9.99-7.38L1.98-7.38L1.98-0.42Z" transform="translate(49.89125811393866 15) " fill="rgb(255, 255, 255)" stroke="rgb(255, 255, 255)" stroke-linecap="square" stroke-linejoin="square" stroke-width="0.035" data-glyph-w="11.302835276231498" data-glyph-h="20.892486647378" data-glyph-ascender="15.6693649855335" data-glyph-descender="-5.2231216618445"></path><path d="M2.07 0L1.65 0L1.65-14.83L7.69-14.83Q8.59-14.83 9.36-14.45Q10.13-14.06 10.69-13.42Q11.24-12.79 11.55-11.98Q11.87-11.18 11.87-10.34L11.87-10.34Q11.87-9.49 11.60-8.69Q11.32-7.90 10.82-7.28Q10.32-6.66 9.62-6.28Q8.92-5.89 8.09-5.83L8.09-5.83L11.85 0L11.34 0L7.58-5.83L2.07-5.83L2.07 0ZM2.07-14.42L2.07-6.25L7.83-6.25Q8.67-6.25 9.34-6.60Q10.01-6.96 10.48-7.53Q10.95-8.11 11.20-8.84Q11.45-9.57 11.45-10.34L11.45-10.34Q11.45-11.14 11.16-11.87Q10.86-12.60 10.35-13.16Q9.84-13.73 9.15-14.07Q8.46-14.42 7.69-14.42L7.69-14.42L2.07-14.42Z" transform="translate(61.19409339017016 15) " fill="rgb(255, 255, 255)" stroke="rgb(255, 255, 255)" stroke-linecap="square" stroke-linejoin="square" stroke-width="0.035" data-glyph-w="13.120481614553384" data-glyph-h="20.892486647378" data-glyph-ascender="15.6693649855335" data-glyph-descender="-5.2231216618445"></path><path d="M2.01 0L1.59 0L1.59-14.81L2.01-14.81L2.01 0Z" transform="translate(74.31457500472354 15) " fill="rgb(255, 255, 255)" stroke="rgb(255, 255, 255)" stroke-linecap="square" stroke-linejoin="square" stroke-width="0.035" data-glyph-w="3.321905376933102" data-glyph-h="20.892486647378" data-glyph-ascender="15.6693649855335" data-glyph-descender="-5.2231216618445"></path><path d="M1.00-7.40L1.00-7.40Q1.00-8.84 1.50-10.20Q2.01-11.55 2.89-12.61Q3.78-13.66 5.02-14.29Q6.27-14.92 7.75-14.92L7.75-14.92Q8.90-14.92 9.80-14.68Q10.70-14.44 11.39-14.01Q12.08-13.58 12.57-12.98Q13.06-12.39 13.41-11.68L13.41-11.68L13.02-11.55Q12.16-13.12 10.82-13.81Q9.49-14.50 7.75-14.50L7.75-14.50Q6.29-14.50 5.12-13.88Q3.95-13.27 3.12-12.26Q2.30-11.26 1.86-9.99Q1.42-8.71 1.42-7.40L1.42-7.40Q1.42-6.00 1.93-4.71Q2.44-3.43 3.34-2.44Q4.24-1.46 5.43-0.88Q6.62-0.29 8.00-0.29L8.00-0.29Q8.69-0.29 9.52-0.53Q10.34-0.77 11.11-1.19Q11.89-1.61 12.50-2.18Q13.12-2.76 13.37-3.43L13.37-3.43L13.77-3.32Q13.48-2.51 12.83-1.87Q12.18-1.23 11.37-0.78Q10.55-0.33 9.66-0.10Q8.77 0.13 8.00 0.13L8.00 0.13Q6.46 0.13 5.17-0.53Q3.89-1.19 2.96-2.26Q2.03-3.32 1.51-4.67Q1.00-6.02 1.00-7.40Z" transform="translate(77.63648038165664 15) " fill="rgb(255, 255, 255)" stroke="rgb(255, 255, 255)" stroke-linecap="square" stroke-linejoin="square" stroke-width="0.035" data-glyph-w="14.645633139811979" data-glyph-h="20.892486647378" data-glyph-ascender="15.6693649855335" data-glyph-descender="-5.2231216618445"></path><path d="M2.03 0L1.61 0L1.61-14.81L2.03-14.81L2.03-5.20L12.39-14.83L13.00-14.83L5.87-8.19L12.37 0L11.83 0L5.56-7.90L2.03-4.62L2.03 0Z" transform="translate(92.28211352146862 15) " fill="rgb(255, 255, 255)" stroke="rgb(255, 255, 255)" stroke-linecap="square" stroke-linejoin="square" stroke-width="0.035" data-glyph-w="13.977073567095882" data-glyph-h="20.892486647378" data-glyph-ascender="15.6693649855335" data-glyph-descender="-5.2231216618445"></path></g></svg></g></g>  <!----></svg>